<mxfile host="app.diagrams.net" modified="2023-07-14T10:12:44.833Z" agent="Mozilla/5.0 (X11; Linux x86_64) AppleWebKit/537.36 (KHTML, like Gecko) Chrome/114.0.0.0 Safari/537.36" etag="TZu9mB0mwhR-rx8oZLDP" version="21.6.2" type="github">
  <diagram id="C5RBs43oDa-KdzZeNtuy" name="Page-1">
    <mxGraphModel dx="1493" dy="895" grid="1" gridSize="10" guides="1" tooltips="1" connect="1" arrows="1" fold="1" page="1" pageScale="1" pageWidth="2339" pageHeight="3300" math="0" shadow="0">
      <root>
        <mxCell id="WIyWlLk6GJQsqaUBKTNV-0" />
        <mxCell id="WIyWlLk6GJQsqaUBKTNV-1" parent="WIyWlLk6GJQsqaUBKTNV-0" />
        <mxCell id="yEvYxHShpCHuWRhARgJl-14" value="" style="edgeStyle=orthogonalEdgeStyle;rounded=0;orthogonalLoop=1;jettySize=auto;html=1;" edge="1" parent="WIyWlLk6GJQsqaUBKTNV-1" source="yEvYxHShpCHuWRhARgJl-12" target="yEvYxHShpCHuWRhARgJl-13">
          <mxGeometry relative="1" as="geometry" />
        </mxCell>
        <mxCell id="yEvYxHShpCHuWRhARgJl-12" value="开始" style="strokeWidth=2;html=1;shape=mxgraph.flowchart.terminator;whiteSpace=wrap;" vertex="1" parent="WIyWlLk6GJQsqaUBKTNV-1">
          <mxGeometry x="285" y="160" width="108" height="60" as="geometry" />
        </mxCell>
        <mxCell id="yEvYxHShpCHuWRhARgJl-16" value="" style="edgeStyle=orthogonalEdgeStyle;rounded=0;orthogonalLoop=1;jettySize=auto;html=1;" edge="1" parent="WIyWlLk6GJQsqaUBKTNV-1" source="yEvYxHShpCHuWRhARgJl-13" target="yEvYxHShpCHuWRhARgJl-15">
          <mxGeometry relative="1" as="geometry" />
        </mxCell>
        <mxCell id="yEvYxHShpCHuWRhARgJl-13" value="&lt;div style=&quot;border-color: var(--border-color); -webkit-font-smoothing: antialiased; resize: none; outline: 0px; font-size: 13px; color: rgb(50, 50, 50); font-family: 微软雅黑; text-align: left;&quot;&gt;输入&lt;/div&gt;&lt;div style=&quot;border-color: var(--border-color); -webkit-font-smoothing: antialiased; resize: none; outline: 0px; font-size: 13px; color: rgb(50, 50, 50); font-family: 微软雅黑; text-align: left;&quot;&gt;pulseType(波形,1正负 2负正 3正 4负）&lt;br style=&quot;border-color: var(--border-color); -webkit-font-smoothing: antialiased;&quot;&gt;&lt;/div&gt;&lt;div style=&quot;border-color: var(--border-color); -webkit-font-smoothing: antialiased; resize: none; outline: 0px; font-size: 13px; color: rgb(50, 50, 50); font-family: 微软雅黑; text-align: left;&quot;&gt;positiveAmp(正电流强度，μA，1-16065)、&lt;/div&gt;&lt;div style=&quot;border-color: var(--border-color); -webkit-font-smoothing: antialiased; resize: none; outline: 0px; font-size: 13px; color: rgb(50, 50, 50); font-family: 微软雅黑; text-align: left;&quot;&gt;negativeAmp(负电流强度，μA，1-16065)、&lt;/div&gt;&lt;div style=&quot;border-color: var(--border-color); -webkit-font-smoothing: antialiased; resize: none; outline: 0px; font-size: 13px; color: rgb(50, 50, 50); font-family: 微软雅黑; text-align: left;&quot;&gt;positiveWidth(正脉冲宽度，μs，8-2040)、&lt;/div&gt;&lt;div style=&quot;border-color: var(--border-color); -webkit-font-smoothing: antialiased; resize: none; outline: 0px; font-size: 13px; color: rgb(50, 50, 50); font-family: 微软雅黑; text-align: left;&quot;&gt;negativeWidth(负脉冲宽度，μs，8-2040)、&lt;/div&gt;&lt;div style=&quot;border-color: var(--border-color); -webkit-font-smoothing: antialiased; resize: none; outline: 0px; font-size: 13px; color: rgb(50, 50, 50); font-family: 微软雅黑; text-align: left;&quot;&gt;unitInterval(unit间隔时间)?&lt;/div&gt;&lt;div style=&quot;border-color: var(--border-color); -webkit-font-smoothing: antialiased; resize: none; outline: 0px; font-size: 13px; color: rgb(50, 50, 50); font-family: 微软雅黑; text-align: left;&quot;&gt;unitCount(unit个数)、&lt;/div&gt;&lt;div style=&quot;border-color: var(--border-color); -webkit-font-smoothing: antialiased; resize: none; outline: 0px; font-size: 13px; color: rgb(50, 50, 50); font-family: 微软雅黑; text-align: left;&quot;&gt;groupTime（1个组持续时间，不包括间隔）、&lt;/div&gt;&lt;div style=&quot;border-color: var(--border-color); -webkit-font-smoothing: antialiased; resize: none; outline: 0px; font-size: 13px; color: rgb(50, 50, 50); font-family: 微软雅黑; text-align: left;&quot;&gt;groupInterval（组间隔时间）&lt;/div&gt;&lt;div style=&quot;border-color: var(--border-color); -webkit-font-smoothing: antialiased; resize: none; outline: 0px; font-size: 13px; color: rgb(50, 50, 50); font-family: 微软雅黑; text-align: left;&quot;&gt;duration(总持续时间）、&lt;/div&gt;&lt;div style=&quot;border-color: var(--border-color); -webkit-font-smoothing: antialiased; resize: none; outline: 0px; font-size: 13px; color: rgb(50, 50, 50); font-family: 微软雅黑; text-align: left;&quot;&gt;frequency（频率，0.5）、&lt;div style=&quot;border-color: var(--border-color); -webkit-font-smoothing: antialiased; resize: none; outline: 0px; font-size: inherit;&quot;&gt;&lt;br style=&quot;border-color: var(--border-color); -webkit-font-smoothing: antialiased;&quot;&gt;&lt;/div&gt;&lt;div style=&quot;border-color: var(--border-color); -webkit-font-smoothing: antialiased; resize: none; outline: 0px; font-size: inherit;&quot;&gt;根据pulseType计算&lt;div style=&quot;border-color: var(--border-color); -webkit-font-smoothing: antialiased; resize: none; outline: 0px; font-size: inherit;&quot;&gt;&lt;/div&gt;positiveWidth&lt;div style=&quot;border-color: var(--border-color); -webkit-font-smoothing: antialiased; resize: none; outline: 0px; font-size: inherit;&quot;&gt;&lt;/div&gt;negativeWidth&lt;/div&gt;&lt;/div&gt;" style="whiteSpace=wrap;html=1;strokeWidth=2;" vertex="1" parent="WIyWlLk6GJQsqaUBKTNV-1">
          <mxGeometry x="525" y="30" width="328" height="320" as="geometry" />
        </mxCell>
        <mxCell id="yEvYxHShpCHuWRhARgJl-21" value="" style="edgeStyle=orthogonalEdgeStyle;rounded=0;orthogonalLoop=1;jettySize=auto;html=1;" edge="1" parent="WIyWlLk6GJQsqaUBKTNV-1" source="yEvYxHShpCHuWRhARgJl-15" target="yEvYxHShpCHuWRhARgJl-20">
          <mxGeometry relative="1" as="geometry" />
        </mxCell>
        <mxCell id="yEvYxHShpCHuWRhARgJl-23" value="" style="edgeStyle=orthogonalEdgeStyle;rounded=0;orthogonalLoop=1;jettySize=auto;html=1;" edge="1" parent="WIyWlLk6GJQsqaUBKTNV-1" source="yEvYxHShpCHuWRhARgJl-15" target="yEvYxHShpCHuWRhARgJl-22">
          <mxGeometry relative="1" as="geometry" />
        </mxCell>
        <mxCell id="yEvYxHShpCHuWRhARgJl-15" value="&lt;div style=&quot;border-color: var(--border-color); -webkit-font-smoothing: antialiased; resize: none; outline: 0px; font-size: 13px; color: rgb(50, 50, 50); font-family: 微软雅黑;&quot;&gt;参数输入方式：&lt;/div&gt;&lt;div style=&quot;border-color: var(--border-color); -webkit-font-smoothing: antialiased; resize: none; outline: 0px; font-size: 13px; color: rgb(50, 50, 50); font-family: 微软雅黑;&quot;&gt;groupTime / unitCount?&lt;/div&gt;" style="rhombus;whiteSpace=wrap;html=1;strokeWidth=2;" vertex="1" parent="WIyWlLk6GJQsqaUBKTNV-1">
          <mxGeometry x="1005" y="120" width="208" height="140" as="geometry" />
        </mxCell>
        <mxCell id="yEvYxHShpCHuWRhARgJl-27" value="" style="edgeStyle=orthogonalEdgeStyle;rounded=0;orthogonalLoop=1;jettySize=auto;html=1;" edge="1" parent="WIyWlLk6GJQsqaUBKTNV-1" source="yEvYxHShpCHuWRhARgJl-20" target="yEvYxHShpCHuWRhARgJl-26">
          <mxGeometry relative="1" as="geometry" />
        </mxCell>
        <mxCell id="yEvYxHShpCHuWRhARgJl-20" value="&lt;div style=&quot;border-color: var(--border-color); -webkit-font-smoothing: antialiased; resize: none; outline: 0px; font-size: 13px; color: rgb(50, 50, 50); font-family: 微软雅黑;&quot;&gt;根据groupTime和frequency&lt;/div&gt;&lt;div style=&quot;border-color: var(--border-color); -webkit-font-smoothing: antialiased; resize: none; outline: 0px; font-size: 13px; color: rgb(50, 50, 50); font-family: 微软雅黑;&quot;&gt;计算unitCount&lt;/div&gt;&lt;div style=&quot;border-color: var(--border-color); -webkit-font-smoothing: antialiased; resize: none; outline: 0px; font-size: 13px; color: rgb(50, 50, 50); font-family: 微软雅黑;&quot;&gt;unitCount=groupTime*frequency*0.001&lt;/div&gt;" style="whiteSpace=wrap;html=1;strokeWidth=2;" vertex="1" parent="WIyWlLk6GJQsqaUBKTNV-1">
          <mxGeometry x="955" y="360" width="308" height="140" as="geometry" />
        </mxCell>
        <mxCell id="yEvYxHShpCHuWRhARgJl-30" style="edgeStyle=orthogonalEdgeStyle;rounded=0;orthogonalLoop=1;jettySize=auto;html=1;entryX=1;entryY=0.55;entryDx=0;entryDy=0;entryPerimeter=0;" edge="1" parent="WIyWlLk6GJQsqaUBKTNV-1" source="yEvYxHShpCHuWRhARgJl-22" target="yEvYxHShpCHuWRhARgJl-26">
          <mxGeometry relative="1" as="geometry">
            <Array as="points">
              <mxPoint x="1495" y="630" />
            </Array>
          </mxGeometry>
        </mxCell>
        <mxCell id="yEvYxHShpCHuWRhARgJl-22" value="&lt;div style=&quot;-webkit-font-smoothing: antialiased; resize: none; outline: 0px; font-size: 13px; color: rgb(50, 50, 50); font-family: 微软雅黑;&quot;&gt;根据unitCount和frequency&lt;/div&gt;&lt;div style=&quot;-webkit-font-smoothing: antialiased; resize: none; outline: 0px; font-size: 13px; color: rgb(50, 50, 50); font-family: 微软雅黑;&quot;&gt;计算groupTime&lt;/div&gt;&lt;div style=&quot;-webkit-font-smoothing: antialiased; resize: none; outline: 0px; font-size: 13px; color: rgb(50, 50, 50); font-family: 微软雅黑;&quot;&gt;groupTime=unitCount*1000/frequency&lt;/div&gt;" style="whiteSpace=wrap;html=1;strokeWidth=2;" vertex="1" parent="WIyWlLk6GJQsqaUBKTNV-1">
          <mxGeometry x="1355" y="350" width="288" height="140" as="geometry" />
        </mxCell>
        <mxCell id="yEvYxHShpCHuWRhARgJl-32" value="" style="edgeStyle=orthogonalEdgeStyle;rounded=0;orthogonalLoop=1;jettySize=auto;html=1;" edge="1" parent="WIyWlLk6GJQsqaUBKTNV-1" source="yEvYxHShpCHuWRhARgJl-26" target="yEvYxHShpCHuWRhARgJl-31">
          <mxGeometry relative="1" as="geometry" />
        </mxCell>
        <mxCell id="yEvYxHShpCHuWRhARgJl-26" value="计算单元时间：&lt;br style=&quot;-webkit-font-smoothing: antialiased; color: rgb(50, 50, 50); font-family: 微软雅黑; font-size: 13px; text-align: left;&quot;&gt;&lt;div style=&quot;-webkit-font-smoothing: antialiased; resize: none; outline: 0px; font-size: 13px; color: rgb(50, 50, 50); font-family: 微软雅黑; text-align: left;&quot;&gt;unitTime=groupTime/unitCount&lt;/div&gt;&lt;div style=&quot;-webkit-font-smoothing: antialiased; resize: none; outline: 0px; font-size: 13px; color: rgb(50, 50, 50); font-family: 微软雅黑; text-align: left;&quot;&gt;计算脉冲持续时间：&lt;br style=&quot;-webkit-font-smoothing: antialiased;&quot;&gt;&lt;/div&gt;&lt;div style=&quot;-webkit-font-smoothing: antialiased; resize: none; outline: 0px; font-size: 13px; color: rgb(50, 50, 50); font-family: 微软雅黑; text-align: left;&quot;&gt;pulseTime = positiveWidth+negativeWidth&lt;/div&gt;&lt;div style=&quot;-webkit-font-smoothing: antialiased; resize: none; outline: 0px; font-size: 13px; color: rgb(50, 50, 50); font-family: 微软雅黑; text-align: left;&quot;&gt;计算固定损耗时间：&lt;/div&gt;&lt;div style=&quot;-webkit-font-smoothing: antialiased; resize: none; outline: 0px; font-size: 13px; color: rgb(50, 50, 50); font-family: 微软雅黑; text-align: left;&quot;&gt;fixedTime = 3 * 8μs&lt;/div&gt;&lt;div style=&quot;-webkit-font-smoothing: antialiased; resize: none; outline: 0px; font-size: 13px; color: rgb(50, 50, 50); font-family: 微软雅黑; text-align: left;&quot;&gt;计算单元间隔时间：&lt;br style=&quot;-webkit-font-smoothing: antialiased;&quot;&gt;&lt;/div&gt;&lt;div style=&quot;-webkit-font-smoothing: antialiased; resize: none; outline: 0px; font-size: 13px; color: rgb(50, 50, 50); font-family: 微软雅黑; text-align: left;&quot;&gt;unitInterval=unitTime-pulseTime-fixedTime&lt;/div&gt;" style="whiteSpace=wrap;html=1;strokeWidth=2;" vertex="1" parent="WIyWlLk6GJQsqaUBKTNV-1">
          <mxGeometry x="515" y="510" width="328" height="200" as="geometry" />
        </mxCell>
        <mxCell id="yEvYxHShpCHuWRhARgJl-34" value="" style="edgeStyle=orthogonalEdgeStyle;rounded=0;orthogonalLoop=1;jettySize=auto;html=1;" edge="1" parent="WIyWlLk6GJQsqaUBKTNV-1" source="yEvYxHShpCHuWRhARgJl-31" target="yEvYxHShpCHuWRhARgJl-33">
          <mxGeometry relative="1" as="geometry" />
        </mxCell>
        <mxCell id="yEvYxHShpCHuWRhARgJl-36" value="" style="edgeStyle=orthogonalEdgeStyle;rounded=0;orthogonalLoop=1;jettySize=auto;html=1;" edge="1" parent="WIyWlLk6GJQsqaUBKTNV-1" source="yEvYxHShpCHuWRhARgJl-31" target="yEvYxHShpCHuWRhARgJl-35">
          <mxGeometry relative="1" as="geometry" />
        </mxCell>
        <mxCell id="yEvYxHShpCHuWRhARgJl-31" value="&lt;div style=&quot;-webkit-font-smoothing: antialiased; resize: none; outline: 0px; font-size: 13px; color: rgb(50, 50, 50); font-family: 微软雅黑;&quot;&gt;脉冲宽度超限判断&lt;/div&gt;&lt;div style=&quot;-webkit-font-smoothing: antialiased; resize: none; outline: 0px; font-size: 13px; color: rgb(50, 50, 50); font-family: 微软雅黑;&quot;&gt;（positiveWidth/negativeWidth）&lt;/div&gt;&lt;div style=&quot;-webkit-font-smoothing: antialiased; resize: none; outline: 0px; font-size: 13px; color: rgb(50, 50, 50); font-family: 微软雅黑;&quot;&gt;&amp;lt;=2040μs？&lt;/div&gt;" style="rhombus;whiteSpace=wrap;html=1;strokeWidth=2;" vertex="1" parent="WIyWlLk6GJQsqaUBKTNV-1">
          <mxGeometry x="545" y="830" width="268" height="130" as="geometry" />
        </mxCell>
        <mxCell id="yEvYxHShpCHuWRhARgJl-38" value="" style="edgeStyle=orthogonalEdgeStyle;rounded=0;orthogonalLoop=1;jettySize=auto;html=1;" edge="1" parent="WIyWlLk6GJQsqaUBKTNV-1" source="yEvYxHShpCHuWRhARgJl-33" target="yEvYxHShpCHuWRhARgJl-37">
          <mxGeometry relative="1" as="geometry" />
        </mxCell>
        <mxCell id="yEvYxHShpCHuWRhARgJl-42" value="" style="edgeStyle=orthogonalEdgeStyle;rounded=0;orthogonalLoop=1;jettySize=auto;html=1;" edge="1" parent="WIyWlLk6GJQsqaUBKTNV-1" source="yEvYxHShpCHuWRhARgJl-33" target="yEvYxHShpCHuWRhARgJl-41">
          <mxGeometry relative="1" as="geometry" />
        </mxCell>
        <mxCell id="yEvYxHShpCHuWRhARgJl-33" value="&lt;div style=&quot;-webkit-font-smoothing: antialiased; resize: none; outline: 0px; font-size: 13px; color: rgb(50, 50, 50); font-family: 微软雅黑;&quot;&gt;&lt;div style=&quot;-webkit-font-smoothing: antialiased; resize: none; outline: 0px;&quot;&gt;unitCount&amp;lt;=15?&lt;/div&gt;&lt;div style=&quot;-webkit-font-smoothing: antialiased; resize: none; outline: 0px;&quot;&gt;unitInterval&amp;lt;=15?&lt;div style=&quot;-webkit-font-smoothing: antialiased; resize: none; outline: 0px; font-size: inherit;&quot;&gt;&lt;/div&gt;groupInterval&amp;lt;=4095?&lt;/div&gt;&lt;div style=&quot;-webkit-font-smoothing: antialiased; resize: none; outline: 0px;&quot;&gt;是否在安全模式&lt;/div&gt;&lt;div style=&quot;-webkit-font-smoothing: antialiased; resize: none; outline: 0px;&quot;&gt;范围内？&lt;/div&gt;&lt;/div&gt;" style="rhombus;whiteSpace=wrap;html=1;strokeWidth=2;" vertex="1" parent="WIyWlLk6GJQsqaUBKTNV-1">
          <mxGeometry x="545" y="1040" width="268" height="130" as="geometry" />
        </mxCell>
        <mxCell id="yEvYxHShpCHuWRhARgJl-66" value="" style="edgeStyle=orthogonalEdgeStyle;rounded=0;orthogonalLoop=1;jettySize=auto;html=1;" edge="1" parent="WIyWlLk6GJQsqaUBKTNV-1" source="yEvYxHShpCHuWRhARgJl-35" target="yEvYxHShpCHuWRhARgJl-65">
          <mxGeometry relative="1" as="geometry" />
        </mxCell>
        <mxCell id="yEvYxHShpCHuWRhARgJl-35" value="芯片静态模式" style="whiteSpace=wrap;html=1;strokeWidth=2;" vertex="1" parent="WIyWlLk6GJQsqaUBKTNV-1">
          <mxGeometry x="1395" y="865" width="128" height="60" as="geometry" />
        </mxCell>
        <mxCell id="yEvYxHShpCHuWRhARgJl-40" value="" style="edgeStyle=orthogonalEdgeStyle;rounded=0;orthogonalLoop=1;jettySize=auto;html=1;" edge="1" parent="WIyWlLk6GJQsqaUBKTNV-1" source="yEvYxHShpCHuWRhARgJl-37" target="yEvYxHShpCHuWRhARgJl-39">
          <mxGeometry relative="1" as="geometry" />
        </mxCell>
        <mxCell id="yEvYxHShpCHuWRhARgJl-49" value="" style="edgeStyle=orthogonalEdgeStyle;rounded=0;orthogonalLoop=1;jettySize=auto;html=1;" edge="1" parent="WIyWlLk6GJQsqaUBKTNV-1" source="yEvYxHShpCHuWRhARgJl-37" target="yEvYxHShpCHuWRhARgJl-48">
          <mxGeometry relative="1" as="geometry" />
        </mxCell>
        <mxCell id="yEvYxHShpCHuWRhARgJl-37" value="&lt;div style=&quot;-webkit-font-smoothing: antialiased; resize: none; outline: 0px; font-size: 13px; color: rgb(50, 50, 50); font-family: 微软雅黑;&quot;&gt;&lt;div style=&quot;-webkit-font-smoothing: antialiased; resize: none; outline: 0px;&quot;&gt;&lt;div style=&quot;-webkit-font-smoothing: antialiased; resize: none; outline: 0px;&quot;&gt;unitInterval&amp;gt;15?&lt;/div&gt;&lt;div style=&quot;-webkit-font-smoothing: antialiased; resize: none; outline: 0px;&quot;&gt;(单元间隔超限)&lt;/div&gt;&lt;/div&gt;&lt;/div&gt;" style="rhombus;whiteSpace=wrap;html=1;strokeWidth=2;" vertex="1" parent="WIyWlLk6GJQsqaUBKTNV-1">
          <mxGeometry x="895" y="1050" width="148" height="110" as="geometry" />
        </mxCell>
        <mxCell id="yEvYxHShpCHuWRhARgJl-58" value="" style="edgeStyle=orthogonalEdgeStyle;rounded=0;orthogonalLoop=1;jettySize=auto;html=1;" edge="1" parent="WIyWlLk6GJQsqaUBKTNV-1" source="yEvYxHShpCHuWRhARgJl-39" target="yEvYxHShpCHuWRhARgJl-57">
          <mxGeometry relative="1" as="geometry" />
        </mxCell>
        <mxCell id="yEvYxHShpCHuWRhARgJl-39" value="&lt;div style=&quot;-webkit-font-smoothing: antialiased; resize: none; outline: 0px; font-size: 13px; color: rgb(50, 50, 50); font-family: 微软雅黑;&quot;&gt;&lt;div style=&quot;-webkit-font-smoothing: antialiased; resize: none; outline: 0px;&quot;&gt;&lt;div style=&quot;-webkit-font-smoothing: antialiased; resize: none; outline: 0px;&quot;&gt;&lt;div style=&quot;-webkit-font-smoothing: antialiased; resize: none; outline: 0px;&quot;&gt;unitCount&amp;gt;15?&lt;/div&gt;&lt;div style=&quot;-webkit-font-smoothing: antialiased; resize: none; outline: 0px;&quot;&gt;(单元间隔超限）&lt;/div&gt;&lt;/div&gt;&lt;/div&gt;&lt;/div&gt;" style="rhombus;whiteSpace=wrap;html=1;strokeWidth=2;" vertex="1" parent="WIyWlLk6GJQsqaUBKTNV-1">
          <mxGeometry x="1330" y="1040" width="158" height="130" as="geometry" />
        </mxCell>
        <mxCell id="yEvYxHShpCHuWRhARgJl-44" value="" style="edgeStyle=orthogonalEdgeStyle;rounded=0;orthogonalLoop=1;jettySize=auto;html=1;" edge="1" parent="WIyWlLk6GJQsqaUBKTNV-1" source="yEvYxHShpCHuWRhARgJl-41" target="yEvYxHShpCHuWRhARgJl-43">
          <mxGeometry relative="1" as="geometry" />
        </mxCell>
        <mxCell id="yEvYxHShpCHuWRhARgJl-46" value="" style="edgeStyle=orthogonalEdgeStyle;rounded=0;orthogonalLoop=1;jettySize=auto;html=1;" edge="1" parent="WIyWlLk6GJQsqaUBKTNV-1" source="yEvYxHShpCHuWRhARgJl-41" target="yEvYxHShpCHuWRhARgJl-45">
          <mxGeometry relative="1" as="geometry" />
        </mxCell>
        <mxCell id="yEvYxHShpCHuWRhARgJl-41" value="&lt;div style=&quot;-webkit-font-smoothing: antialiased; resize: none; outline: 0px; font-size: 13px; color: rgb(50, 50, 50); font-family: 微软雅黑;&quot;&gt;&lt;div style=&quot;-webkit-font-smoothing: antialiased; resize: none; outline: 0px;&quot;&gt;groupCount&amp;gt;255？&lt;br&gt;&lt;/div&gt;&lt;/div&gt;" style="rhombus;whiteSpace=wrap;html=1;strokeWidth=2;" vertex="1" parent="WIyWlLk6GJQsqaUBKTNV-1">
          <mxGeometry x="295" y="1055" width="138" height="100" as="geometry" />
        </mxCell>
        <mxCell id="yEvYxHShpCHuWRhARgJl-62" style="edgeStyle=orthogonalEdgeStyle;rounded=0;orthogonalLoop=1;jettySize=auto;html=1;exitX=0.5;exitY=1;exitDx=0;exitDy=0;entryX=0;entryY=0.5;entryDx=0;entryDy=0;" edge="1" parent="WIyWlLk6GJQsqaUBKTNV-1" source="yEvYxHShpCHuWRhARgJl-43" target="yEvYxHShpCHuWRhARgJl-59">
          <mxGeometry relative="1" as="geometry" />
        </mxCell>
        <mxCell id="yEvYxHShpCHuWRhARgJl-43" value="芯片&lt;span style=&quot;-webkit-font-smoothing: antialiased; color: rgb(50, 50, 50); font-family: 微软雅黑; font-size: inherit;&quot;&gt;自动无限&lt;/span&gt;&lt;div style=&quot;-webkit-font-smoothing: antialiased; resize: none; outline: 0px; font-size: 13px; color: rgb(50, 50, 50); font-family: 微软雅黑;&quot;&gt;&lt;br style=&quot;-webkit-font-smoothing: antialiased;&quot;&gt;&lt;div style=&quot;-webkit-font-smoothing: antialiased; resize: none; outline: 0px; font-size: inherit;&quot;&gt;计算停止参数&lt;div style=&quot;-webkit-font-smoothing: antialiased; resize: none; outline: 0px; font-size: inherit;&quot;&gt;&lt;/div&gt;MCU停止&lt;/div&gt;&lt;div style=&quot;-webkit-font-smoothing: antialiased; resize: none; outline: 0px; font-size: inherit;&quot;&gt;上位机停止&lt;/div&gt;&lt;/div&gt;" style="whiteSpace=wrap;html=1;strokeWidth=2;" vertex="1" parent="WIyWlLk6GJQsqaUBKTNV-1">
          <mxGeometry x="277.5" y="1270" width="173" height="115" as="geometry" />
        </mxCell>
        <mxCell id="yEvYxHShpCHuWRhARgJl-45" value="&lt;div style=&quot;-webkit-font-smoothing: antialiased; resize: none; outline: 0px; font-size: 13px; color: rgb(50, 50, 50); font-family: 微软雅黑;&quot;&gt;芯片&lt;/div&gt;自动有限" style="whiteSpace=wrap;html=1;strokeWidth=2;" vertex="1" parent="WIyWlLk6GJQsqaUBKTNV-1">
          <mxGeometry x="30" y="1280" width="166" height="75" as="geometry" />
        </mxCell>
        <mxCell id="yEvYxHShpCHuWRhARgJl-61" style="edgeStyle=orthogonalEdgeStyle;rounded=0;orthogonalLoop=1;jettySize=auto;html=1;exitX=0.5;exitY=1;exitDx=0;exitDy=0;entryX=0.464;entryY=-0.025;entryDx=0;entryDy=0;entryPerimeter=0;" edge="1" parent="WIyWlLk6GJQsqaUBKTNV-1" source="yEvYxHShpCHuWRhARgJl-48" target="yEvYxHShpCHuWRhARgJl-59">
          <mxGeometry relative="1" as="geometry" />
        </mxCell>
        <mxCell id="yEvYxHShpCHuWRhARgJl-48" value="&lt;div style=&quot;-webkit-font-smoothing: antialiased; resize: none; outline: 0px; font-size: 13px; color: rgb(50, 50, 50); font-family: 微软雅黑;&quot;&gt;每产生一个Unit调用一次芯片&lt;/div&gt;&lt;div style=&quot;-webkit-font-smoothing: antialiased; resize: none; outline: 0px; font-size: 13px; color: rgb(50, 50, 50); font-family: 微软雅黑;&quot;&gt;设置MCU的unit持续时间和count数量&lt;/div&gt;&lt;div style=&quot;-webkit-font-smoothing: antialiased; resize: none; outline: 0px; font-size: 13px; color: rgb(50, 50, 50); font-family: 微软雅黑;&quot;&gt;设置unit的count和interval为1,&lt;/div&gt;&lt;div style=&quot;-webkit-font-smoothing: antialiased; resize: none; outline: 0px; font-size: 13px; color: rgb(50, 50, 50); font-family: 微软雅黑;&quot;&gt;设置group的inverval和count为1&lt;/div&gt;" style="whiteSpace=wrap;html=1;strokeWidth=2;" vertex="1" parent="WIyWlLk6GJQsqaUBKTNV-1">
          <mxGeometry x="690" y="1261.25" width="281.75" height="132.5" as="geometry" />
        </mxCell>
        <mxCell id="yEvYxHShpCHuWRhARgJl-50" value="利用芯片本身的groupCount来实现unitCount&lt;div style=&quot;-webkit-font-smoothing: antialiased; resize: none; outline: 0px; font-size: 13px; color: rgb(50, 50, 50); font-family: 微软雅黑; text-align: center;&quot;&gt;&lt;/div&gt;&lt;span style=&quot;color: rgb(50, 50, 50); font-family: 微软雅黑; font-size: 13px; text-align: center; background-color: rgba(255, 255, 255, 0.01);&quot;&gt;将芯片的group interval设置为最小的1Ts&lt;/span&gt;&lt;div style=&quot;-webkit-font-smoothing: antialiased; resize: none; outline: 0px; font-size: 13px; color: rgb(50, 50, 50); font-family: 微软雅黑; text-align: center;&quot;&gt;&lt;/div&gt;&lt;span style=&quot;color: rgb(50, 50, 50); font-family: 微软雅黑; font-size: 13px; text-align: center; background-color: rgba(255, 255, 255, 0.01);&quot;&gt;重新计算芯片合理的Unit count和Group count，&lt;/span&gt;&lt;div style=&quot;-webkit-font-smoothing: antialiased; resize: none; outline: 0px; font-size: 13px; color: rgb(50, 50, 50); font-family: 微软雅黑; text-align: center;&quot;&gt;&lt;/div&gt;&lt;span style=&quot;color: rgb(50, 50, 50); font-family: 微软雅黑; font-size: 13px; text-align: center; background-color: rgba(255, 255, 255, 0.01);&quot;&gt;原则是:用户Unit count = 芯片的Unit count * 芯片的Group count，&lt;/span&gt;&lt;div style=&quot;-webkit-font-smoothing: antialiased; resize: none; outline: 0px; font-size: 13px; color: rgb(50, 50, 50); font-family: 微软雅黑; text-align: center;&quot;&gt;&lt;/div&gt;&lt;span style=&quot;color: rgb(50, 50, 50); font-family: 微软雅黑; font-size: 13px; text-align: center; background-color: rgba(255, 255, 255, 0.01);&quot;&gt;两者误差最小&lt;/span&gt;" style="strokeWidth=2;html=1;shape=mxgraph.flowchart.annotation_2;align=left;labelPosition=right;pointerEvents=1;" vertex="1" parent="WIyWlLk6GJQsqaUBKTNV-1">
          <mxGeometry x="971.75" y="1277.5" width="50" height="100" as="geometry" />
        </mxCell>
        <mxCell id="yEvYxHShpCHuWRhARgJl-51" value="Unit间隔超限，所以芯片只能最多&lt;br style=&quot;border-color: var(--border-color);&quot;&gt;产生一个Unit的波形，&lt;br style=&quot;border-color: var(--border-color);&quot;&gt;Unit的间隔将由MCU控制" style="strokeWidth=2;html=1;shape=mxgraph.flowchart.annotation_2;align=left;labelPosition=right;pointerEvents=1;" vertex="1" parent="WIyWlLk6GJQsqaUBKTNV-1">
          <mxGeometry x="450.5" y="1285" width="50" height="100" as="geometry" />
        </mxCell>
        <mxCell id="yEvYxHShpCHuWRhARgJl-56" value="&lt;div style=&quot;-webkit-font-smoothing: antialiased; resize: none; outline: 0px; font-size: 13px; color: rgb(50, 50, 50); font-family: 微软雅黑; text-align: center;&quot;&gt;利用芯片的group去超限的unit。&lt;br style=&quot;-webkit-font-smoothing: antialiased;&quot;&gt;&lt;/div&gt;&lt;div style=&quot;-webkit-font-smoothing: antialiased; resize: none; outline: 0px; font-size: 13px; color: rgb(50, 50, 50); font-family: 微软雅黑; text-align: center;&quot;&gt;重新计算unit 和group数量:&lt;/div&gt;&lt;div style=&quot;-webkit-font-smoothing: antialiased; resize: none; outline: 0px; font-size: 13px; color: rgb(50, 50, 50); font-family: 微软雅黑; text-align: center;&quot;&gt;定义损失函数为：&lt;/div&gt;&lt;div style=&quot;-webkit-font-smoothing: antialiased; resize: none; outline: 0px; font-size: 13px; color: rgb(50, 50, 50); font-family: 微软雅黑; text-align: center;&quot;&gt;lost = unitCount - newUnit-newGroup&lt;/div&gt;&lt;div style=&quot;-webkit-font-smoothing: antialiased; resize: none; outline: 0px; font-size: 13px; color: rgb(50, 50, 50); font-family: 微软雅黑; text-align: center;&quot;&gt;找到最小损失时，newGroup最小的解&lt;/div&gt;" style="strokeWidth=2;html=1;shape=mxgraph.flowchart.annotation_1;align=left;pointerEvents=1;" vertex="1" parent="WIyWlLk6GJQsqaUBKTNV-1">
          <mxGeometry x="1000" y="1430" width="50" height="100" as="geometry" />
        </mxCell>
        <mxCell id="yEvYxHShpCHuWRhARgJl-60" value="" style="edgeStyle=orthogonalEdgeStyle;rounded=0;orthogonalLoop=1;jettySize=auto;html=1;" edge="1" parent="WIyWlLk6GJQsqaUBKTNV-1" source="yEvYxHShpCHuWRhARgJl-57" target="yEvYxHShpCHuWRhARgJl-59">
          <mxGeometry relative="1" as="geometry">
            <Array as="points">
              <mxPoint x="1409" y="1780" />
            </Array>
          </mxGeometry>
        </mxCell>
        <mxCell id="yEvYxHShpCHuWRhARgJl-57" value="&lt;div style=&quot;-webkit-font-smoothing: antialiased; resize: none; outline: 0px; font-size: 13px; color: rgb(50, 50, 50); font-family: 微软雅黑;&quot;&gt;每产生一个Group&lt;/div&gt;&lt;div style=&quot;-webkit-font-smoothing: antialiased; resize: none; outline: 0px; font-size: 13px; color: rgb(50, 50, 50); font-family: 微软雅黑;&quot;&gt;调用一次芯片&lt;/div&gt;&lt;div style=&quot;-webkit-font-smoothing: antialiased; resize: none; outline: 0px; font-size: 13px; color: rgb(50, 50, 50); font-family: 微软雅黑;&quot;&gt;需要重新计算Unit count 和 Group count&lt;/div&gt;&lt;div style=&quot;-webkit-font-smoothing: antialiased; resize: none; outline: 0px; font-size: 13px; color: rgb(50, 50, 50); font-family: 微软雅黑;&quot;&gt;设置group interval设为1&lt;/div&gt;" style="whiteSpace=wrap;html=1;strokeWidth=2;" vertex="1" parent="WIyWlLk6GJQsqaUBKTNV-1">
          <mxGeometry x="1275.75" y="1300" width="266.5" height="120" as="geometry" />
        </mxCell>
        <mxCell id="yEvYxHShpCHuWRhARgJl-59" value="&lt;div style=&quot;-webkit-font-smoothing: antialiased; resize: none; outline: 0px; font-size: 13px; color: rgb(50, 50, 50); font-family: 微软雅黑;&quot;&gt;&lt;div style=&quot;-webkit-font-smoothing: antialiased; resize: none; outline: 0px;&quot;&gt;计算 MCU的unit时间、unit count、&lt;/div&gt;&lt;div style=&quot;-webkit-font-smoothing: antialiased; resize: none; outline: 0px;&quot;&gt;group 时间&lt;/div&gt;&lt;/div&gt;" style="whiteSpace=wrap;html=1;strokeWidth=2;" vertex="1" parent="WIyWlLk6GJQsqaUBKTNV-1">
          <mxGeometry x="710" y="1700" width="261.75" height="100" as="geometry" />
        </mxCell>
        <mxCell id="yEvYxHShpCHuWRhARgJl-64" value="由芯片控制生成Group，&lt;br&gt;MCU控制Group Interval和 Group个数" style="strokeWidth=2;html=1;shape=mxgraph.flowchart.annotation_2;align=left;labelPosition=right;pointerEvents=1;" vertex="1" parent="WIyWlLk6GJQsqaUBKTNV-1">
          <mxGeometry x="1542" y="1310" width="50" height="100" as="geometry" />
        </mxCell>
        <mxCell id="yEvYxHShpCHuWRhARgJl-65" value="&lt;div style=&quot;-webkit-font-smoothing: antialiased; resize: none; outline: 0px; font-size: 13px; color: rgb(50, 50, 50); font-family: 微软雅黑;&quot;&gt;每产生一个Group&lt;/div&gt;&lt;div style=&quot;-webkit-font-smoothing: antialiased; resize: none; outline: 0px; font-size: 13px; color: rgb(50, 50, 50); font-family: 微软雅黑;&quot;&gt;调用一次芯片&lt;/div&gt;&lt;div style=&quot;-webkit-font-smoothing: antialiased; resize: none; outline: 0px; font-size: 13px; color: rgb(50, 50, 50); font-family: 微软雅黑;&quot;&gt;unit count不变&lt;/div&gt;&lt;div style=&quot;-webkit-font-smoothing: antialiased; resize: none; outline: 0px; font-size: 13px; color: rgb(50, 50, 50); font-family: 微软雅黑;&quot;&gt;group interval设为1&lt;/div&gt;" style="whiteSpace=wrap;html=1;strokeWidth=2;" vertex="1" parent="WIyWlLk6GJQsqaUBKTNV-1">
          <mxGeometry x="1620" y="832.5" width="223" height="125" as="geometry" />
        </mxCell>
      </root>
    </mxGraphModel>
  </diagram>
</mxfile>
